# xmcd CD database file
#
# Track frame offsets:
#	150
#	15468
#	27636
#	43158
#	57953
#	76698
#	89759
#	102742
#	115537
#	130787
#	146262
#	159543
#
# Disc length: 2306 seconds
#
# Revision: 2
# Processed by: cddbd v1.5.2PL0 Copyright (c) Steve Scherf et al.
# Submitted via: CDex 2.21
#
DISCID=9909000c
DTITLE=Tracy Lawrence - Made in America
DYEAR=2019
DGENRE=Country
TTITLE0=Made in America
TTITLE1=Forgive Yourself
TTITLE2=Running Out of People to Blame
TTITLE3=When the Cowboys Gone
TTITLE4=Nothin' Burns Like You
TTITLE5=First Step to Leaving
TTITLE6=It Ain't You
TTITLE7=Givin' Momma Reasons to Pray
TTITLE8=Work on My Willie
TTITLE9=Chicken Wire
TTITLE10=Just the South Comin' Out
TTITLE11=Stay Back a Hundred Feet
EXTD=YEAR: 2019
EXTT0=
EXTT1=
EXTT2=
EXTT3=
EXTT4=
EXTT5=
EXTT6=
EXTT7=
EXTT8=
EXTT9=
EXTT10=
EXTT11=
PLAYORDER=
